<?xml version="1.0" encoding="UTF-8"?>
<!DOCTYPE svg PUBLIC "-//W3C//DTD SVG 1.1//EN" "http://www.w3.org/Graphics/SVG/1.1/DTD/svg11.dtd">
<!-- Creator: CorelDRAW 2020 (64 Bit) -->
<svg xmlns="http://www.w3.org/2000/svg" xml:space="preserve" width="101.6mm" height="77.8932mm" version="1.1" style="shape-rendering:geometricPrecision; text-rendering:geometricPrecision; image-rendering:optimizeQuality; fill-rule:evenodd; clip-rule:evenodd"
viewBox="0 0 10159.98 7789.32"
 xmlns:xlink="http://www.w3.org/1999/xlink"
 xmlns:xodm="http://www.corel.com/coreldraw/odm/2003">
 <defs>
  <style type="text/css">
   <![CDATA[
    .fil1 {fill:black}
    .fil0 {fill:#E02026}
   ]]>
  </style>
 </defs>
 <g id="Camada_x0020_1">
  <metadata id="CorelCorpID_0Corel-Layer"/>
  <g id="_1627413626000">
   <path class="fil0" d="M3479.29 3061.39c0,83.88 36.89,143.59 83.98,204.57 20.72,26.84 48.39,45.75 70,72.44 26.63,32.9 43.34,37.1 -66.32,37.1l-580.21 -0.53c-10.61,-1.21 -17.79,-4.52 -33.39,-3.35 -22.36,1.68 -29.24,17.45 -29.24,40.41l0 244.71c0,17.34 4.09,26.39 7.3,40.18 233.77,0 467.53,0 701.29,0 164.42,0 304.68,15.69 397.45,-128.51 66.67,-103.63 49.31,-247.63 -27.97,-343.24 -9.6,-11.87 -20.48,-19.82 -30.69,-31.41l-60.3 -63.88c-12.97,-12.82 -22.3,-16.12 -22.82,-39.27 64.87,0 370.25,-5.4 409.08,3.65 8.54,36.62 0,109.6 0,164.36l0 412.74c0,13.4 5.66,17.65 10.96,25.56 53.56,0 107.16,0.19 160.72,-0.01 50.34,-0.18 110.36,11.61 149.75,-7.29 9.28,-39.88 3.65,-413.59 3.65,-485.78 0,-41.4 -15.57,-113.23 14.61,-113.23l368.9 0 0 -292.2 -1267.42 0c-51.53,0 -147.77,44.75 -179.49,79.84 -34.87,38.56 -55.87,74.07 -71.08,126.15 -3.39,11.6 -8.76,44.75 -8.76,56.99z"/>
   <g>
    <path class="fil0" d="M5279.98 4102.35l0 883.91 343.33 0c29.11,0 18.27,-83.12 18.27,-113.23 0,-43.83 0,-87.66 0,-131.49 25.03,16.76 56.37,42.94 75.16,67.28l70.02 76.08c42.66,42.66 104.68,101.36 187.2,101.36l756.06 0c69.24,0 137.56,-36.99 183.6,-83.04 99.54,-99.55 97.65,-260.25 8.99,-379.84 -10.97,-14.81 -16.29,-20.27 -29.15,-32.94 -17.43,-17.17 -81.29,-86.01 -90.38,-103.19l350.64 0c101.31,0 80.35,24.68 80.35,-273.94 0,-17.05 -8.51,-25.57 -25.56,-25.57l-540.58 0c-59.6,0 -144.04,39.57 -185.42,77.56 -21.6,19.83 -41.09,48.73 -56.42,75.07 -53.24,91.4 -26.33,227.26 36.39,297.55l84.02 91.29c12.84,11.55 20.84,11.88 22.82,35.63l-405.43 0c-41.89,0 -99.51,5.44 -116.89,-18.27 3.84,-14.35 16.02,-18.06 28.5,-26.29 103.8,-68.45 132.22,-124.88 132.22,-265.9 0,-149.08 -166.89,-266.64 -299.51,-266.64l-613.62 0c-8.55,0 -14.61,6.06 -14.61,14.61zm326.63 385.61c49.25,1.36 201.77,7.94 241.12,-0.86 68.37,-15.28 94.3,-101 41.17,-149.98 -42.44,-39.14 -151.64,-24.92 -218.1,-24.94 -65.59,-0.02 -69.14,-13.29 -67.51,53.15 0.86,34.67 -3.8,91.32 3.32,122.63z"/>
    <path class="fil1" d="M5318.57 4125.86l-3.67 53.2c4,117.55 -3.27,321.62 -2.59,452.9l3.36 317.16c94.31,8.7 190.28,6.08 284.22,2.49 9.2,-36.69 3.57,-232.03 3.9,-284.89 19.58,-4.08 57.72,41.77 70.67,56.62l152.77 154.02c57.62,44.48 96.79,75.32 190.56,75.32l675.71 0c235.38,0 318.92,-227.71 214.08,-388.69 -55.38,-85.03 -175.98,-153.23 -134.15,-199.1 31.33,-34.37 266.18,-12.37 329.15,-14.48l91.2 -2.57c0.15,-46.44 5.18,-197.9 -1.8,-221.42 -21.2,-9.29 -336.15,-3.45 -388.9,-3.45 -152.65,0 -223.29,-4.3 -310.55,85.29 -74.87,76.85 -76.66,196.15 -13.06,290.75 25.2,37.49 62.52,72.64 92.21,105.04 12.57,13.71 40.43,33.84 34.79,64.11 -5.05,27.19 -36.74,33.72 -66.37,33.72l-431.46 0c-53.9,0 -118.39,-20.38 -120.87,-69.92 15.21,-14.62 56.67,-30.82 76.89,-44.34 23.63,-15.79 46.59,-37.83 63.24,-61.04 112.68,-157.08 11.23,-403.61 -237.95,-403.61 -111.58,0 -488.32,-4.9 -571.38,2.89zm288.04 362.1c49.25,1.36 201.77,7.94 241.12,-0.86 68.37,-15.28 94.3,-101 41.17,-149.98 -42.44,-39.14 -151.64,-24.92 -218.1,-24.94 -65.59,-0.02 -69.14,-13.29 -67.51,53.15 0.86,34.67 -3.8,91.32 3.32,122.63z"/>
   </g>
   <path class="fil0" d="M2938.72 4098.7l256.14 832.3c2.8,8.4 5.85,17.18 9.15,27.38 3.32,10.22 4.94,20.14 8.65,27.88l310.46 0c1.49,-17.94 19.21,-63.14 25.1,-80.82 8.97,-26.92 18.6,-52.72 26.04,-79.9l46.02 -140.25c1.82,-5.53 1.69,-5.94 3.76,-10.85l5.01 -9.6 91.31 321.42 303.16 0c12.79,0 15.15,-23.11 22.68,-50.37l173.21 -560.94c6.45,-19.61 11.58,-36.49 17.27,-55.79l49.84 -169.31c4.84,-18.48 12.93,-42.19 14.59,-62.11l-343.34 0c-4.85,20.84 -9.2,38.96 -14.6,58.46 -10.26,37.07 -48.75,142.84 -51.14,171.65l-10.52 -26.01c-3.56,-10.96 -6.15,-18.57 -10.02,-30.16l-39.22 -121.49c-4.71,-16.04 -11.47,-52.45 -27.9,-52.45l-350.64 0c-25.24,0 -50.07,128.69 -61.67,168.44 -4.92,16.87 -14.63,43.3 -15.04,61.67l-7.31 0c-0.5,-22.62 -41.43,-146.77 -50.38,-179.73 -4.57,-16.84 -8.23,-50.38 -26.32,-50.38l-343.33 0c-8.42,0 -10.96,2.54 -10.96,10.96z"/>
   <path class="fil1" d="M2973.03 3655.74c13.37,9.61 656.37,7.01 732.72,6.98 94.27,-0.04 218.2,-7.61 278.34,-92.92 81.81,-116.06 68.09,-223.81 -22.51,-333.15 -31.29,-37.77 -52.17,-62.17 -88.12,-94.65 -11.97,-10.81 -32.56,-38.05 -19.78,-63.92 17.81,-36.02 112.31,-23.78 158.88,-23.88 83.79,-0.18 190.25,-0.25 274.14,4.22 34.36,1.82 47.26,6.73 47.62,42.9 0.8,77.77 -1.21,542.36 6.87,551.79 21.57,14.62 205.76,13.43 236.57,4.35 3.53,-4.04 2.64,-0.02 6,-9.65 1.43,-4.09 1.85,-8.6 2.32,-12.93 11.23,-103.79 -8.09,-391.37 -0.3,-529.84 3.52,-62.68 42.18,-50.53 135.36,-48.82 51.33,0.94 214.93,9.83 249.12,-4.69 5.68,-21.31 7.03,-196.76 -0.74,-216.82 -49.51,-12.96 -1108.36,-6.11 -1183.56,-2.47 -113.68,5.5 -205.52,39.21 -252.32,148.28 -48.64,113.36 12.63,213.5 81.29,288.58 8.44,9.22 14.5,15.31 23.05,24.45 17.33,18.5 67.29,58.29 45.62,96.33 -18.72,32.89 -131.91,19.89 -175.01,19.68 -132.71,-0.64 -265.52,-3.67 -398.2,-2.87 -174.29,1.04 -143.71,-6.24 -144.38,56.47 -0.35,32.87 -0.78,65.75 -1.14,98.62 -0.28,25.83 -9.59,77.77 8.16,93.96z"/>
   <path class="fil1" d="M2987.19 4125.32c-3.41,19.11 167.49,555.64 188.05,620.79 21.85,69.25 41.45,136.13 63.35,206.57l248.01 -0.18c17.83,-6.63 107.11,-365.9 135.14,-397.86 0.59,0.71 1.39,0.96 1.61,2.24l4.25 7.12c20.47,42.75 109.81,348.64 121.7,388.68l255.96 0c59.8,-205.99 125.23,-410.24 188.34,-614.4 13.74,-44.45 56.94,-172.06 56.99,-213.49l-264.1 -1.53c-5.54,22.44 -17.14,50.22 -24.14,74.95 -21.04,74.41 -41.95,166.75 -70.1,232.67 -35.04,-27.34 -82.08,-271.24 -106.15,-306.1 -55.58,-4.85 -195.26,-1.16 -266.63,-1.69 -73.38,-0.56 -50.98,1.73 -99.24,172.31 -6.7,23.68 -12.88,46.43 -20.34,70.93 -5.65,18.54 -12.57,51.64 -27.41,64.54 -14.66,-18.73 -73.66,-229.16 -82.38,-267.33 -12.04,-52.65 -32.19,-44.09 -132.23,-42.26 -39.1,0.71 -139.55,-3.02 -170.68,4.04z"/>
   <g>
    <path class="fil0" d="M5973.96 2820.32l0 854.69c0,9.86 1.74,10.07 3.65,18.26 37.8,8.81 284.87,3.65 343.34,3.65 20.94,0 16.84,-30.4 15.27,-44.23l-0.67 -207.79c68.9,46.13 84.52,82.63 125.04,123.34l32.82 36.58c44.7,41.79 100.56,79.15 164.52,87.5 73.88,9.64 463.04,4.6 568.84,4.6 11.13,-47.76 9.7,-302.99 1.92,-316.03 -6.93,-11.61 -51.81,-5.39 -67.67,-5.39l-292.2 0c-62.67,0 -88.49,4.44 -127.84,-21.91 16.23,-24.23 57.49,-30.21 110.45,-94.09 69.03,-83.26 76.68,-243.11 -0.3,-337.48 -48.76,-59.75 -134.06,-123.61 -216.07,-123.61l-646.49 0c-11.23,0 -14.61,10.7 -14.61,21.91zm329.86 374.91c51.44,0.34 201.24,7.76 241.73,-0.88 66.17,-14.13 91.66,-99.06 39.91,-149.07 -41,-39.62 -152.33,-26.77 -217.03,-26.76 -79.84,0 -68.88,-11.26 -67.78,53.83 0.56,33.67 -2.12,92.37 3.17,122.88z"/>
    <path class="fil1" d="M6297.35 3651.5c8.27,-26.48 2.01,-234.33 4.87,-284.62 66.94,25.31 210.12,240.13 314.24,279.19 61.27,22.99 206.71,14.36 281.58,14.36 41.61,0 273.34,4.61 292.24,-2.78 10.7,-8.72 1.73,-243.59 1.08,-246.74 -84.81,-10.03 -201.67,-2.06 -289.66,-1.3 -84.26,0.73 -207.9,13.29 -219.56,-75.13 89.89,-19.99 166.37,-103.98 183.14,-200.04 21.77,-124.72 -47.88,-218.16 -118,-261.96 -90.32,-56.41 -228.97,-41.75 -345.98,-41.75 -58.43,0 -354.87,-3.76 -386.32,1.51 -9.29,26.24 -3.05,626.64 -3.44,773.38 -0.19,73.47 -8.94,53.14 155.92,56.21 36.89,0.69 105,9.22 129.89,-10.33zm6.47 -456.27c51.44,0.34 201.24,7.76 241.73,-0.88 66.17,-14.13 91.66,-99.06 39.91,-149.07 -41,-39.62 -152.33,-26.77 -217.03,-26.76 -79.84,0 -68.88,-11.26 -67.78,53.83 0.56,33.67 -2.12,92.37 3.17,122.88z"/>
   </g>
   <g>
    <path class="fil0" d="M4169.62 4986.26l339.68 0c0.39,-17.24 11.47,-54.69 16.84,-70.82 29.64,-88.99 27.9,-46.65 122.95,-59.68l163.37 -0.99c44.95,0 40.86,28.24 51.56,61.67 28.38,88.72 5.27,73.47 127.41,73.47 78.54,0 144.44,-3.65 222.8,-3.65 0,-32.28 -52.6,-186.85 -65.31,-226.89 -40.26,-126.85 -80.24,-263.83 -122.34,-389.02l-52.64 -166.5c-10.91,-39.51 -24.26,-75.82 -33.65,-116.11l-467.67 -0.15c-49.07,-0.38 -34.84,12.38 -62.4,94.65 -17.31,51.68 -30.35,107.1 -47.45,160.74 -50.28,157.69 -96.32,322.58 -146.13,478.46 -16.4,51.31 -34.32,110.28 -47.02,164.82zm410.31 -332.08l234.56 1.09c-5.65,-53.06 -35.95,-142.19 -52.13,-192.33 -19.8,-61.32 -39.07,-125.25 -62.46,-181.65 -15.33,13.46 -27.85,62.67 -35.42,85.81 -10.28,31.35 -21.42,62.12 -30.91,93.33 -16.29,53.55 -47.35,137.7 -53.64,193.75z"/>
    <path class="fil1" d="M4219.23 4949.65c81.45,7.34 176.6,6.51 259.08,1.96l41.41 -127.01 347.53 -0.9c16.77,13.04 25.68,54.89 30.56,77.58 8.85,41.15 5.33,51.29 53.31,53.41 68.46,3.04 145.82,-1.94 215.53,-2.27 -1.98,-65.79 -219.99,-710.7 -256.42,-827.48 -103.76,-16.33 -264.48,-0.5 -375.36,-1.98 -76.7,-1.02 -63.73,-18.3 -97.83,89.75 -61.45,194.7 -113.08,383.65 -177.08,582.62 -13.89,43.17 -37.07,108.49 -40.73,154.32zm360.7 -295.47l234.56 1.09c-5.65,-53.06 -35.95,-142.19 -52.13,-192.33 -19.8,-61.32 -39.07,-125.25 -62.46,-181.65 -15.33,13.46 -27.85,62.67 -35.42,85.81 -10.28,31.35 -21.42,62.12 -30.91,93.33 -16.29,53.55 -47.35,137.7 -53.64,193.75z"/>
   </g>
   <g>
    <path class="fil0" d="M4892.81 3696.92l299.51 0c26.62,0 31.42,-31.65 37.87,-53.44l20.57 -74.4 292.55 -0.35c19.51,2.21 9.44,2.57 21.04,37.41 5.32,15.99 10.72,27.02 15.17,43.26 2.35,8.56 4.46,15.69 6.32,22.9 6.18,23.79 7.22,25.02 48.4,24.66 13.39,-0.12 26.81,-0.04 40.21,-0.04l248.37 0c-27.6,-118.46 -94.86,-330.23 -134.68,-449.72 -12.39,-37.21 -23.65,-71.88 -34.88,-111.22l-104.38 -337.57 -504.04 0c-12.85,55.13 -118.66,399.19 -135.58,452.48 -11.48,36.17 -23.54,72.08 -34.82,111.27 -11.41,39.64 -22.06,78.25 -33.68,116.08l-53.04 166.11c-4.91,14.59 -18.32,52.57 5.09,52.57zm401.8 -335.1c45.75,3.75 184.59,10.95 220.46,-3.1 9.83,-24.92 -12.09,-70.26 -19.88,-96.14 -15.81,-52.54 -72.23,-258.23 -91.71,-273.81 -23.17,35.87 -43.31,131.49 -58.83,181.04 -15.55,49.67 -52.2,139.2 -50.04,192.01z"/>
    <path class="fil1" d="M5173.96 2832.06c-31.71,76.61 -95.02,312.33 -125.17,410.78 -23.14,75.54 -120.7,354.35 -118.49,416.6l253.97 0.48c12.82,-27.96 29.88,-108.61 46.65,-125.35 16.43,-4.72 320.32,-6.97 346.03,-2.35l32.17 94.86c1.44,4.93 3.41,13.05 4.83,17.04l8.49 14.26c20.39,5.26 214.71,2.67 247.6,0.37 7.77,-30.57 -153.72,-519.88 -174.94,-588.73l-66.52 -218.56c-9.18,-30.37 -45.99,-20.69 -78.31,-20.9 -125.43,-0.85 -251.02,-3.33 -376.31,1.5zm120.65 529.76c45.75,3.75 184.59,10.95 220.46,-3.1 9.83,-24.92 -12.09,-70.26 -19.88,-96.14 -15.81,-52.54 -72.23,-258.23 -91.71,-273.81 -23.17,35.87 -43.31,131.49 -58.83,181.04 -15.55,49.67 -52.2,139.2 -50.04,192.01z"/>
   </g>
  </g>
 </g>
</svg>
